<svg width="729" height="206" viewBox="0 0 729 206" fill="none" xmlns="http://www.w3.org/2000/svg">
<mask id="mask0_113_197" style="mask-type:alpha" maskUnits="userSpaceOnUse" x="0" y="0" width="194" height="104">
<path d="M142.389 91.2928C179.455 71.7453 192.624 27.4868 193.332 5.50922C151.587 25.3599 136.022 21.1063 123.286 20.3973C110.55 19.6883 85.7867 6.92715 71.636 3.38235C37.6744 -5.12517 22.1087 4.09129 13.6183 12.5988C-20.3433 55.1361 21.8761 86.3801 32.7217 91.2928C84.3716 114.688 128.946 98.3824 142.389 91.2928Z" fill="#0F75C2"/>
</mask>
<g mask="url(#mask0_113_197)">
<rect x="-30" y="-30" width="282" height="158" fill="#B7D663"/>
<path d="M130.818 88.0942C139.882 88.0942 147.23 80.7799 147.23 71.7573C147.23 62.7347 139.882 55.4204 130.818 55.4204C121.754 55.4204 114.407 62.7347 114.407 71.7573C114.407 80.7799 121.754 88.0942 130.818 88.0942Z" fill="#E9FAE7"/>
<path d="M66.4116 172C62.6929 172 59.718 169.038 59.718 165.337V80.6908C59.718 77.384 62.1475 74.5213 65.4695 74.0277C68.7419 73.5342 71.8656 75.5084 72.8076 78.6672C73.1547 79.605 78.212 93.6715 95.9127 93.6715C99.6314 93.6715 102.606 96.6329 102.606 100.335C102.606 104.036 99.6314 106.998 95.9127 106.998C85.798 106.998 78.3608 103.839 73.1051 100.038V165.337C73.1051 169.038 70.0806 172 66.4116 172Z" fill="#E9FAE7"/>
<path d="M166.715 167.262C164.187 167.262 161.807 165.83 160.667 163.461L147.032 134.835H126.852C123.133 134.835 120.158 131.873 120.158 128.172V97.0277C120.158 93.326 123.133 90.3646 126.852 90.3646C130.57 90.3646 133.545 93.326 133.545 97.0277V121.508H151.246C153.824 121.508 156.204 122.989 157.295 125.309L170.186 152.405L175.244 150.777C178.764 149.641 182.532 151.566 183.672 155.071C184.813 158.575 182.879 162.326 179.359 163.461L168.699 166.916C168.104 167.163 167.41 167.262 166.715 167.262Z" fill="#E9FAE7"/>
<path d="M128.538 172C108.556 172 92.2932 155.811 92.2932 135.92C92.2932 124.569 97.7472 113.71 106.92 106.948C109.895 104.777 114.06 105.369 116.291 108.33C118.472 111.292 117.877 115.438 114.903 117.659C109.052 122.002 105.68 128.665 105.68 135.92C105.68 148.457 115.944 158.674 128.538 158.674C133.843 158.674 138.851 156.897 142.966 153.59C145.842 151.27 150.056 151.714 152.386 154.528C154.717 157.39 154.27 161.586 151.444 163.905C144.999 169.137 136.867 172 128.538 172Z" fill="#E9FAE7"/>
<path d="M66.4116 66.6738C75.4754 66.6738 82.8232 59.3595 82.8232 50.3369C82.8232 41.3143 75.4754 34 66.4116 34C57.3477 34 50 41.3143 50 50.3369C50 59.3595 57.3477 66.6738 66.4116 66.6738Z" fill="#0F75C2"/>
</g>
<mask id="mask1_113_197" style="mask-type:alpha" maskUnits="userSpaceOnUse" x="0" y="102" width="194" height="104">
<path d="M51.5884 114.244C14.5228 133.792 1.35353 178.05 0.645996 200.028C42.3905 180.177 57.9562 184.431 70.6918 185.14C83.4274 185.849 108.191 198.61 122.342 202.155C156.303 210.662 171.869 201.446 180.36 192.938C214.321 150.401 172.102 119.157 161.256 114.244C109.606 90.8486 65.0315 107.154 51.5884 114.244Z" fill="#0F75C2"/>
</mask>
<g mask="url(#mask1_113_197)">
<rect x="-47.5381" y="84.1177" width="301.354" height="151.902" fill="#0F75C2"/>
<path d="M66.4116 66.6738C75.4754 66.6738 82.8232 59.3595 82.8232 50.3369C82.8232 41.3143 75.4754 34 66.4116 34C57.3477 34 50 41.3143 50 50.3369C50 59.3595 57.3477 66.6738 66.4116 66.6738Z" fill="#E9FAE7"/>
<path d="M130.818 88.0944C139.882 88.0944 147.23 80.7801 147.23 71.7575C147.23 62.7348 139.882 55.4206 130.818 55.4206C121.754 55.4206 114.407 62.7348 114.407 71.7575C114.407 80.7801 121.754 88.0944 130.818 88.0944Z" fill="#E9FAE7"/>
<path d="M66.4116 172C62.693 172 59.7181 169.039 59.7181 165.337V80.691C59.7181 77.3841 62.1476 74.5214 65.4696 74.0279C68.742 73.5343 71.8656 75.5086 72.8077 78.6674C73.1547 79.6051 78.2121 93.6717 95.9128 93.6717C99.6314 93.6717 102.606 96.633 102.606 100.335C102.606 104.036 99.6314 106.998 95.9128 106.998C85.7981 106.998 78.3608 103.839 73.1052 100.039V165.337C73.1052 169.039 70.0807 172 66.4116 172Z" fill="#E9FAE7"/>
<path d="M166.716 167.262C164.187 167.262 161.807 165.83 160.667 163.461L147.032 134.835H126.852C123.133 134.835 120.158 131.873 120.158 128.172V97.0279C120.158 93.3262 123.133 90.3648 126.852 90.3648C130.57 90.3648 133.545 93.3262 133.545 97.0279V121.509H151.246C153.824 121.509 156.204 122.989 157.295 125.309L170.186 152.406L175.244 150.777C178.764 149.642 182.532 151.567 183.673 155.071C184.813 158.575 182.879 162.326 179.359 163.461L168.699 166.916C168.104 167.163 167.41 167.262 166.716 167.262Z" fill="#E9FAE7"/>
<path d="M128.538 172C108.556 172 92.2933 155.811 92.2933 135.921C92.2933 124.569 97.7473 113.71 106.92 106.949C109.895 104.777 114.06 105.369 116.291 108.33C118.472 111.292 117.877 115.438 114.903 117.659C109.052 122.002 105.68 128.665 105.68 135.921C105.68 148.457 115.944 158.674 128.538 158.674C133.843 158.674 138.851 156.897 142.966 153.59C145.842 151.27 150.056 151.715 152.386 154.528C154.717 157.391 154.271 161.586 151.444 163.906C144.999 169.137 136.867 172 128.538 172Z" fill="#E9FAE7"/>
</g>
<path d="M230.971 115.337H257.848V125.336H216.78V115.337L243.765 76.0972H216.78V66.099H257.848V76.0972L230.971 115.337Z" fill="#0F75C2"/>
<path d="M315.225 66.099V125.336H302.969V118.348C301.034 120.784 298.49 122.719 295.336 124.153C292.254 125.515 288.957 126.196 285.445 126.196C280.787 126.196 276.594 125.228 272.867 123.293C269.212 121.358 266.309 118.491 264.159 114.692C262.081 110.894 261.041 106.307 261.041 100.931V66.099H273.19V99.1037C273.19 104.407 274.516 108.493 277.167 111.36C279.819 114.155 283.439 115.552 288.026 115.552C292.613 115.552 296.232 114.155 298.884 111.36C301.607 108.493 302.969 104.407 302.969 99.1037V66.099H315.225Z" fill="#0F75C2"/>
<path d="M334.513 74.6996C336.305 71.6894 338.67 69.3601 341.609 67.7116C344.619 65.9915 348.167 65.1315 352.252 65.1315V77.8173H349.134C344.332 77.8173 340.677 79.0357 338.169 81.4726C335.732 83.9094 334.513 88.138 334.513 94.1584V125.336H322.257V66.099H334.513V74.6996Z" fill="#0F75C2"/>
<path d="M360.615 58.251C358.393 58.251 356.53 57.4984 355.025 55.9933C353.519 54.4882 352.767 52.6248 352.767 50.403C352.767 48.1811 353.519 46.3177 355.025 44.8126C356.53 43.3075 358.393 42.5549 360.615 42.5549C362.765 42.5549 364.593 43.3075 366.098 44.8126C367.603 46.3177 368.355 48.1811 368.355 50.403C368.355 52.6248 367.603 54.4882 366.098 55.9933C364.593 57.4984 362.765 58.251 360.615 58.251ZM366.635 66.099V125.336H354.379V66.099H366.635Z" fill="#0F75C2"/>
<path d="M427.879 94.2659C427.879 96.4877 427.736 98.4945 427.449 100.286H382.189C382.547 105.017 384.303 108.815 387.456 111.682C390.61 114.549 394.48 115.982 399.067 115.982C405.661 115.982 410.32 113.223 413.043 107.704H426.267C424.475 113.151 421.214 117.631 416.483 121.143C411.825 124.583 406.019 126.303 399.067 126.303C393.405 126.303 388.316 125.049 383.801 122.54C379.358 119.96 375.846 116.377 373.265 111.79C370.757 107.131 369.503 101.756 369.503 95.6635C369.503 89.5714 370.721 84.2319 373.158 79.6449C375.666 74.9863 379.143 71.4027 383.586 68.8942C388.101 66.3857 393.262 65.1315 399.067 65.1315C404.658 65.1315 409.639 66.3499 414.011 68.7867C418.383 71.2235 421.787 74.6638 424.224 79.1074C426.661 83.4794 427.879 88.5322 427.879 94.2659ZM415.086 90.3956C415.014 85.8803 413.402 82.2609 410.248 79.5374C407.094 76.8139 403.188 75.4521 398.53 75.4521C394.301 75.4521 390.682 76.8139 387.671 79.5374C384.661 82.1893 382.869 85.8087 382.296 90.3956H415.086Z" fill="#0F75C2"/>
<path d="M443.058 45.7802V125.336H430.802V45.7802H443.058Z" fill="#0F75C2"/>
<path d="M473.64 65.1316C478.155 65.1316 482.168 66.0991 485.68 68.0343C489.264 69.9694 492.059 72.8363 494.066 76.6348C496.144 80.4334 497.184 85.0204 497.184 90.3958V125.336H485.035V92.2234C485.035 86.9197 483.709 82.8703 481.058 80.0751C478.406 77.2082 474.786 75.7748 470.199 75.7748C465.612 75.7748 461.957 77.2082 459.234 80.0751C456.582 82.8703 455.256 86.9197 455.256 92.2234V125.336H443V45.7803H455.256V72.9796C457.334 70.4711 459.95 68.536 463.104 67.1742C466.329 65.8125 469.841 65.1316 473.64 65.1316Z" fill="#B7D663"/>
<path d="M557.97 94.266C557.97 96.4878 557.826 98.4947 557.54 100.286H512.279C512.638 105.017 514.393 108.815 517.547 111.682C520.701 114.549 524.571 115.982 529.158 115.982C535.752 115.982 540.41 113.223 543.134 107.704H556.357C554.565 113.151 551.304 117.631 546.574 121.143C541.915 124.583 536.11 126.303 529.158 126.303C523.496 126.303 518.407 125.049 513.892 122.54C509.448 119.96 505.936 116.377 503.356 111.79C500.848 107.131 499.593 101.756 499.593 95.6636C499.593 89.5716 500.812 84.232 503.249 79.6451C505.757 74.9864 509.233 71.4028 513.677 68.8943C518.192 66.3858 523.352 65.1316 529.158 65.1316C534.748 65.1316 539.729 66.35 544.101 68.7868C548.473 71.2237 551.878 74.6639 554.314 79.1075C556.751 83.4795 557.97 88.5323 557.97 94.266ZM545.176 90.3958C545.105 85.8805 543.492 82.2611 540.339 79.5375C537.185 76.814 533.279 75.4523 528.62 75.4523C524.392 75.4523 520.772 76.814 517.762 79.5375C514.752 82.1894 512.96 85.8088 512.387 90.3958H545.176Z" fill="#B7D663"/>
<path d="M556.807 95.4486C556.807 89.4999 558.026 84.232 560.463 79.6451C562.971 75.0581 566.34 71.5103 570.568 69.0018C574.869 66.4217 579.599 65.1316 584.759 65.1316C589.418 65.1316 593.467 66.0633 596.908 67.9268C600.419 69.7185 603.215 71.9762 605.293 74.6997V66.0991H617.656V125.336H605.293V116.52C603.215 119.315 600.384 121.645 596.8 123.508C593.216 125.371 589.131 126.303 584.544 126.303C579.456 126.303 574.797 125.013 570.568 122.433C566.34 119.781 562.971 116.126 560.463 111.467C558.026 106.737 556.807 101.397 556.807 95.4486ZM605.293 95.6636C605.293 91.5784 604.433 88.0306 602.713 85.0204C601.064 82.0102 598.878 79.7167 596.155 78.1399C593.431 76.5632 590.493 75.7748 587.339 75.7748C584.186 75.7748 581.247 76.5632 578.524 78.1399C575.8 79.6451 573.578 81.9027 571.858 84.9129C570.21 87.8514 569.386 91.3633 569.386 95.4486C569.386 99.5339 570.21 103.117 571.858 106.199C573.578 109.281 575.8 111.646 578.524 113.295C581.319 114.872 584.258 115.66 587.339 115.66C590.493 115.66 593.431 114.872 596.155 113.295C598.878 111.718 601.064 109.425 602.713 106.414C604.433 103.332 605.293 99.7489 605.293 95.6636Z" fill="#B7D663"/>
<path d="M636.872 45.7803V125.336H624.616V45.7803H636.872Z" fill="#B7D663"/>
<path d="M658.123 76.0973V108.887C658.123 111.109 658.625 112.721 659.628 113.725C660.703 114.657 662.495 115.122 665.003 115.122H672.529V125.336H662.853C657.334 125.336 653.106 124.046 650.167 121.465C647.229 118.885 645.759 114.692 645.759 108.887V76.0973H638.771V66.0991H645.759V51.3706H658.123V66.0991H672.529V76.0973H658.123Z" fill="#B7D663"/>
<path d="M705.326 65.1316C709.841 65.1316 713.855 66.0991 717.367 68.0343C720.951 69.9694 723.746 72.8363 725.752 76.6348C727.831 80.4334 728.87 85.0204 728.87 90.3958V125.336H716.722V92.2234C716.722 86.9197 715.396 82.8703 712.744 80.0751C710.092 77.2082 706.473 75.7748 701.886 75.7748C697.299 75.7748 693.644 77.2082 690.92 80.0751C688.268 82.8703 686.942 86.9197 686.942 92.2234V125.336H674.687V45.7803H686.942V72.9796C689.021 70.4711 691.637 68.536 694.79 67.1742C698.016 65.8125 701.528 65.1316 705.326 65.1316Z" fill="#B7D663"/>
<path d="M330 156.84C330 156.408 330.119 156.051 330.358 155.767C330.612 155.469 330.933 155.32 331.322 155.32C331.71 155.32 332.009 155.447 332.218 155.7C332.442 155.939 332.554 156.244 332.554 156.617C332.554 157.064 332.427 157.429 332.173 157.712C331.919 157.995 331.613 158.137 331.255 158.137C330.821 158.137 330.5 158.017 330.291 157.779C330.097 157.541 330 157.228 330 156.84Z" fill="#0F75C2"/>
<path d="M335.542 156.84C335.542 156.408 335.662 156.051 335.901 155.767C336.155 155.469 336.476 155.32 336.864 155.32C337.252 155.32 337.551 155.447 337.76 155.7C337.984 155.939 338.096 156.244 338.096 156.617C338.096 157.064 337.969 157.429 337.715 157.712C337.461 157.995 337.155 158.137 336.797 158.137C336.364 158.137 336.043 158.017 335.833 157.779C335.639 157.541 335.542 157.228 335.542 156.84Z" fill="#0F75C2"/>
<path d="M341.084 156.84C341.084 156.408 341.204 156.051 341.443 155.767C341.697 155.469 342.018 155.32 342.406 155.32C342.795 155.32 343.093 155.447 343.302 155.7C343.526 155.939 343.638 156.244 343.638 156.617C343.638 157.064 343.511 157.429 343.258 157.712C343.004 157.995 342.697 158.137 342.339 158.137C341.906 158.137 341.585 158.017 341.376 157.779C341.181 157.541 341.084 157.228 341.084 156.84Z" fill="#0F75C2"/>
<path d="M349.617 162.629C350.319 162.629 350.909 162.368 351.387 161.847C351.879 161.34 352.23 160.595 352.44 159.612L353.605 154.002H353.515C352.708 155.492 351.917 156.557 351.14 157.198C350.364 157.824 349.587 158.137 348.81 158.137C348.317 158.137 347.936 158.032 347.668 157.824C347.414 157.615 347.287 157.272 347.287 156.796C347.287 156.617 347.302 156.408 347.332 156.17C347.361 155.916 347.399 155.678 347.444 155.455L348.541 150.247C348.556 150.202 348.571 150.135 348.586 150.046C348.601 149.941 348.609 149.867 348.609 149.822C348.609 149.643 348.534 149.554 348.385 149.554C348.31 149.554 348.205 149.584 348.071 149.643C347.951 149.688 347.824 149.74 347.69 149.8C347.556 149.845 347.429 149.897 347.309 149.956C347.205 150.001 347.123 150.023 347.063 150.023C346.988 150.023 346.928 149.979 346.884 149.889C346.839 149.8 346.809 149.703 346.794 149.599C347.048 149.45 347.347 149.278 347.69 149.085C348.034 148.891 348.37 148.72 348.698 148.571C349.042 148.407 349.348 148.273 349.617 148.168C349.886 148.049 350.072 147.99 350.177 147.99C350.461 147.99 350.602 148.139 350.602 148.437C350.602 148.571 350.588 148.697 350.558 148.816L349.258 155.008C349.169 155.41 349.124 155.745 349.124 156.013C349.124 156.43 349.348 156.639 349.796 156.639C350.139 156.639 350.498 156.505 350.871 156.237C351.245 155.969 351.603 155.618 351.947 155.186C352.29 154.754 352.611 154.262 352.91 153.711C353.224 153.145 353.493 152.579 353.717 152.013C353.956 151.446 354.142 150.895 354.277 150.359C354.411 149.807 354.478 149.323 354.478 148.906C354.478 148.697 354.456 148.489 354.411 148.28C355.008 148.235 355.621 148.131 356.248 147.967C356.338 148.057 356.383 148.146 356.383 148.235C356.383 148.265 356.375 148.332 356.36 148.437C356.345 148.526 356.33 148.6 356.315 148.66L354.299 158.807C354.135 159.612 353.866 160.305 353.493 160.886C353.119 161.482 352.693 161.973 352.216 162.361C351.738 162.748 351.222 163.031 350.67 163.21C350.132 163.404 349.617 163.501 349.124 163.501C348.063 163.501 347.212 163.352 346.57 163.054C346.689 162.711 346.779 162.405 346.839 162.137C346.898 161.884 346.951 161.571 346.996 161.199L347.376 161.064C347.586 161.497 347.884 161.862 348.273 162.16C348.676 162.473 349.124 162.629 349.617 162.629Z" fill="#0F75C2"/>
<path d="M364.113 147.99C364.666 147.99 365.144 148.086 365.547 148.28C365.965 148.459 366.301 148.72 366.555 149.062C366.809 149.39 366.996 149.785 367.115 150.247C367.25 150.709 367.317 151.208 367.317 151.744C367.317 152.817 367.145 153.756 366.802 154.561C366.458 155.365 366.018 156.036 365.48 156.572C364.957 157.094 364.367 157.488 363.71 157.757C363.053 158.01 362.411 158.137 361.783 158.137C361.261 158.137 360.813 158.055 360.439 157.891C360.081 157.727 359.789 157.488 359.565 157.175C359.341 156.863 359.177 156.483 359.073 156.036C358.983 155.574 358.938 155.06 358.938 154.493C358.938 153.51 359.102 152.616 359.431 151.811C359.774 151.007 360.2 150.321 360.708 149.755C361.231 149.189 361.791 148.757 362.388 148.459C363.001 148.146 363.576 147.99 364.113 147.99ZM362.343 157.265C362.791 157.265 363.202 157.131 363.576 156.863C363.964 156.594 364.293 156.222 364.561 155.745C364.845 155.268 365.062 154.71 365.211 154.069C365.36 153.413 365.435 152.698 365.435 151.923C365.435 150.984 365.323 150.239 365.099 149.688C364.875 149.137 364.479 148.861 363.912 148.861C363.419 148.861 362.978 149.025 362.59 149.353C362.202 149.681 361.873 150.105 361.604 150.627C361.35 151.148 361.156 151.729 361.022 152.37C360.887 153.011 360.82 153.644 360.82 154.27C360.82 155.253 360.932 155.998 361.156 156.505C361.395 157.012 361.791 157.265 362.343 157.265Z" fill="#0F75C2"/>
<path d="M372.374 155.008C372.284 155.44 372.239 155.775 372.239 156.013C372.239 156.252 372.306 156.423 372.441 156.527C372.59 156.632 372.777 156.684 373.001 156.684C373.329 156.684 373.673 156.557 374.031 156.304C374.39 156.036 374.741 155.685 375.084 155.253C375.443 154.821 375.779 154.33 376.093 153.778C376.421 153.227 376.705 152.668 376.944 152.102C377.183 151.521 377.37 150.955 377.504 150.403C377.653 149.837 377.728 149.338 377.728 148.906C377.728 148.712 377.706 148.511 377.661 148.302C378.243 148.228 378.833 148.116 379.431 147.967C379.55 148.042 379.61 148.131 379.61 148.235C379.61 148.265 379.602 148.332 379.587 148.437C379.573 148.526 379.558 148.6 379.543 148.66L378.019 156.349C377.974 156.617 378.072 156.751 378.311 156.751C378.4 156.751 378.497 156.728 378.602 156.684C378.721 156.624 378.833 156.572 378.938 156.527C379.042 156.468 379.139 156.416 379.229 156.371C379.334 156.311 379.416 156.281 379.475 156.281C379.61 156.281 379.7 156.416 379.744 156.684C379.475 156.877 379.192 157.064 378.893 157.243C378.594 157.421 378.31 157.578 378.042 157.712C377.773 157.846 377.519 157.95 377.28 158.025C377.056 158.099 376.877 158.137 376.742 158.137C376.593 158.137 376.451 158.099 376.317 158.025C376.182 157.965 376.115 157.816 376.115 157.578C376.115 157.548 376.115 157.481 376.115 157.377C376.13 157.272 376.152 157.175 376.182 157.086L376.832 154.002H376.742C375.951 155.462 375.152 156.52 374.345 157.175C373.539 157.816 372.74 158.137 371.948 158.137C371.47 158.137 371.097 158.017 370.828 157.779C370.559 157.541 370.425 157.183 370.425 156.706C370.425 156.527 370.439 156.319 370.469 156.08C370.499 155.842 370.537 155.611 370.581 155.387L371.679 150.247C371.679 150.217 371.687 150.165 371.702 150.09C371.716 150.016 371.724 149.964 371.724 149.934C371.754 149.681 371.687 149.554 371.522 149.554C371.448 149.554 371.343 149.584 371.209 149.643C371.089 149.688 370.962 149.74 370.828 149.8C370.693 149.845 370.566 149.897 370.447 149.956C370.342 150.001 370.26 150.023 370.201 150.023C370.126 150.023 370.066 149.979 370.021 149.889C369.976 149.8 369.939 149.703 369.909 149.599C370.163 149.45 370.462 149.278 370.805 149.085C371.164 148.891 371.507 148.72 371.836 148.571C372.179 148.407 372.486 148.273 372.754 148.168C373.023 148.049 373.203 147.99 373.292 147.99C373.591 147.99 373.74 148.116 373.74 148.369C373.74 148.444 373.733 148.518 373.718 148.593C373.703 148.667 373.688 148.742 373.673 148.816L372.374 155.008Z" fill="#0F75C2"/>
<path d="M388.812 150.113C388.573 150.113 388.297 150.217 387.983 150.426C387.684 150.634 387.378 150.917 387.064 151.275C386.766 151.633 386.467 152.05 386.168 152.527C385.885 152.989 385.631 153.488 385.407 154.024C385.183 154.546 385.003 155.082 384.869 155.633C384.734 156.185 384.667 156.714 384.667 157.22C384.667 157.429 384.69 157.63 384.734 157.824C384.436 157.853 384.13 157.898 383.816 157.958C383.517 158.017 383.219 158.084 382.92 158.159C382.785 158.084 382.718 157.995 382.718 157.891C382.718 157.801 382.733 157.697 382.763 157.578C382.793 157.459 382.823 157.362 382.853 157.287C382.882 157.213 382.912 157.123 382.942 157.019C382.972 156.915 383.002 156.766 383.032 156.572L384.018 151.499C384.122 150.917 384.189 150.523 384.219 150.314C384.249 150.105 384.271 149.956 384.286 149.867C384.286 149.673 384.219 149.576 384.085 149.576C384.025 149.576 383.935 149.599 383.816 149.643C383.711 149.688 383.592 149.74 383.457 149.8C383.338 149.859 383.219 149.912 383.099 149.956C382.994 150.001 382.912 150.023 382.853 150.023C382.778 150.023 382.711 149.979 382.651 149.889C382.606 149.8 382.569 149.696 382.539 149.576C382.808 149.412 383.121 149.241 383.48 149.062C383.853 148.869 384.204 148.697 384.533 148.548C384.876 148.384 385.175 148.25 385.429 148.146C385.698 148.042 385.87 147.99 385.944 147.99C386.049 147.99 386.138 148.019 386.213 148.079C386.288 148.124 386.325 148.206 386.325 148.325C386.325 148.355 386.318 148.407 386.303 148.481C386.303 148.556 386.295 148.63 386.28 148.705L385.563 152.057H385.653C386.46 150.627 387.191 149.591 387.849 148.951C388.521 148.31 389.178 147.99 389.82 147.99C389.954 147.99 390.074 148.012 390.178 148.057C390.298 148.101 390.38 148.146 390.425 148.191C390.291 148.533 390.171 148.891 390.066 149.263C389.962 149.636 389.88 150.053 389.82 150.515H389.462C389.312 150.247 389.096 150.113 388.812 150.113Z" fill="#0F75C2"/>
<path d="M400.491 144.011C400.491 143.937 400.476 143.862 400.446 143.788C400.431 143.713 400.372 143.676 400.267 143.676C400.222 143.676 400.14 143.691 400.021 143.721C399.916 143.736 399.804 143.758 399.684 143.788C399.565 143.803 399.453 143.817 399.348 143.832C399.244 143.847 399.169 143.855 399.124 143.855C398.915 143.855 398.811 143.698 398.811 143.385C399.483 143.207 400.103 143.028 400.67 142.849C401.253 142.655 401.828 142.447 402.395 142.223C402.575 142.342 402.664 142.484 402.664 142.648C402.664 142.707 402.657 142.774 402.642 142.849C402.627 142.909 402.612 142.961 402.597 143.005L400.693 152.594H400.76C401.163 151.938 401.566 151.327 401.97 150.761C402.373 150.195 402.784 149.71 403.202 149.308C403.62 148.891 404.046 148.571 404.479 148.347C404.912 148.109 405.345 147.99 405.778 147.99C406.211 147.99 406.555 148.094 406.809 148.302C407.078 148.511 407.212 148.854 407.212 149.331C407.212 149.509 407.197 149.718 407.167 149.956C407.137 150.195 407.1 150.433 407.055 150.672L405.913 156.036C405.898 156.095 405.883 156.17 405.868 156.259C405.853 156.349 405.845 156.416 405.845 156.46C405.845 156.654 405.935 156.751 406.114 156.751C406.204 156.751 406.308 156.728 406.428 156.684C406.547 156.624 406.659 156.565 406.764 156.505C406.883 156.43 406.988 156.371 407.078 156.326C407.167 156.267 407.242 156.237 407.302 156.237C407.451 156.237 407.556 156.386 407.615 156.684C407.346 156.877 407.07 157.064 406.786 157.243C406.503 157.406 406.219 157.555 405.935 157.69C405.666 157.824 405.412 157.928 405.173 158.002C404.949 158.092 404.763 158.137 404.613 158.137C404.449 158.137 404.292 158.099 404.143 158.025C403.993 157.965 403.919 157.809 403.919 157.555C403.919 157.511 403.926 157.436 403.941 157.332C403.956 157.213 403.971 157.131 403.986 157.086L405.241 151.119C405.33 150.701 405.375 150.366 405.375 150.113C405.375 149.681 405.166 149.465 404.748 149.465C404.539 149.465 404.277 149.576 403.964 149.8C403.65 150.023 403.314 150.329 402.955 150.716C402.612 151.089 402.261 151.528 401.902 152.035C401.544 152.542 401.208 153.07 400.894 153.622C400.76 153.875 400.625 154.158 400.491 154.471C400.372 154.769 400.267 155.082 400.177 155.41C400.088 155.738 400.013 156.058 399.953 156.371C399.909 156.684 399.886 156.967 399.886 157.22C399.886 157.429 399.909 157.63 399.953 157.824C399.386 157.883 398.796 157.995 398.183 158.159C398.049 158.084 397.982 157.995 397.982 157.891C397.982 157.831 397.989 157.764 398.004 157.69C398.019 157.6 398.034 157.526 398.049 157.466L400.222 146.291C400.312 145.859 400.379 145.434 400.424 145.017C400.469 144.585 400.491 144.25 400.491 144.011Z" fill="#0F75C2"/>
<path d="M412.251 152.661C413.67 152.542 414.678 152.251 415.275 151.789C415.873 151.327 416.171 150.746 416.171 150.046C416.171 149.629 416.067 149.316 415.858 149.107C415.663 148.884 415.395 148.772 415.051 148.772C414.693 148.772 414.357 148.884 414.043 149.107C413.744 149.316 413.468 149.599 413.214 149.956C412.975 150.314 412.773 150.731 412.609 151.208C412.445 151.67 412.325 152.154 412.251 152.661ZM412.183 153.331C412.169 153.48 412.154 153.629 412.139 153.778C412.139 153.927 412.139 154.084 412.139 154.248C412.139 154.59 412.169 154.926 412.228 155.253C412.288 155.581 412.393 155.872 412.542 156.125C412.691 156.378 412.893 156.587 413.147 156.751C413.416 156.9 413.752 156.974 414.155 156.974C414.543 156.974 414.947 156.907 415.365 156.773C415.783 156.624 416.209 156.401 416.642 156.103C416.791 155.998 416.896 155.946 416.955 155.946C417.075 155.946 417.15 156.006 417.179 156.125C417.224 156.244 417.247 156.334 417.247 156.393C417.023 156.602 416.769 156.81 416.485 157.019C416.201 157.228 415.895 157.414 415.566 157.578C415.238 157.742 414.887 157.876 414.513 157.98C414.14 158.084 413.752 158.137 413.348 158.137C412.721 158.137 412.206 158.025 411.803 157.801C411.414 157.563 411.101 157.265 410.862 156.907C410.638 156.535 410.481 156.132 410.391 155.7C410.317 155.268 410.279 154.851 410.279 154.449C410.279 153.659 410.399 152.877 410.638 152.102C410.892 151.327 411.243 150.634 411.691 150.023C412.139 149.412 412.684 148.921 413.326 148.548C413.968 148.176 414.685 147.99 415.477 147.99C415.79 147.99 416.097 148.034 416.395 148.124C416.694 148.198 416.955 148.317 417.179 148.481C417.418 148.645 417.605 148.861 417.739 149.129C417.889 149.398 417.964 149.718 417.964 150.09C417.964 150.642 417.814 151.119 417.515 151.521C417.232 151.908 416.828 152.236 416.306 152.504C415.798 152.758 415.193 152.951 414.491 153.085C413.789 153.219 413.02 153.301 412.183 153.331Z" fill="#0F75C2"/>
<path d="M426.203 154.158H426.114C425.74 154.888 425.359 155.507 424.971 156.013C424.583 156.52 424.194 156.93 423.806 157.243C423.433 157.555 423.059 157.779 422.686 157.913C422.327 158.062 421.984 158.137 421.655 158.137C421.431 158.137 421.215 158.099 421.006 158.025C420.811 157.965 420.632 157.853 420.468 157.69C420.319 157.526 420.199 157.302 420.11 157.019C420.02 156.736 419.975 156.378 419.975 155.946C419.975 154.68 420.177 153.555 420.58 152.571C420.998 151.588 421.513 150.761 422.126 150.09C422.738 149.405 423.395 148.884 424.097 148.526C424.814 148.168 425.479 147.99 426.091 147.99C426.569 147.99 427.025 148.012 427.458 148.057C427.906 148.101 428.406 148.183 428.959 148.302L427.413 156.058C427.383 156.207 427.368 156.341 427.368 156.46C427.368 156.654 427.45 156.751 427.615 156.751C427.719 156.751 427.824 156.728 427.928 156.684C428.048 156.624 428.16 156.565 428.264 156.505C428.384 156.43 428.488 156.371 428.578 156.326C428.683 156.267 428.765 156.237 428.824 156.237C428.974 156.237 429.078 156.386 429.138 156.684C428.869 156.877 428.585 157.064 428.287 157.243C428.003 157.406 427.727 157.555 427.458 157.69C427.189 157.824 426.935 157.928 426.696 158.002C426.457 158.092 426.263 158.137 426.114 158.137C425.949 158.137 425.8 158.099 425.666 158.025C425.531 157.965 425.464 157.824 425.464 157.6C425.464 157.526 425.471 157.444 425.486 157.354C425.501 157.25 425.524 157.146 425.554 157.041L426.203 154.158ZM427.01 149.085C426.831 149.025 426.629 148.98 426.405 148.951C426.196 148.906 425.994 148.884 425.8 148.884C425.203 148.884 424.665 149.04 424.187 149.353C423.709 149.666 423.298 150.105 422.955 150.672C422.611 151.238 422.342 151.908 422.148 152.683C421.969 153.458 421.879 154.3 421.879 155.209C421.879 155.745 421.947 156.132 422.081 156.371C422.215 156.594 422.402 156.706 422.641 156.706C422.94 156.706 423.261 156.572 423.604 156.304C423.948 156.036 424.277 155.685 424.59 155.253C424.919 154.821 425.232 154.337 425.531 153.801C425.83 153.249 426.084 152.691 426.293 152.124C426.517 151.558 426.689 151.014 426.808 150.493C426.943 149.956 427.01 149.487 427.01 149.085Z" fill="#0F75C2"/>
<path d="M434.644 144.011C434.644 143.937 434.629 143.862 434.599 143.788C434.584 143.713 434.524 143.676 434.42 143.676C434.375 143.676 434.293 143.691 434.173 143.721C434.069 143.736 433.949 143.758 433.815 143.788C433.695 143.803 433.583 143.817 433.479 143.832C433.374 143.847 433.299 143.855 433.255 143.855C433.06 143.855 432.963 143.698 432.963 143.385C433.636 143.207 434.255 143.028 434.823 142.849C435.39 142.655 435.958 142.447 436.526 142.223C436.645 142.298 436.72 142.372 436.75 142.447C436.779 142.506 436.794 142.573 436.794 142.648C436.794 142.767 436.779 142.886 436.75 143.005L434.196 156.036C434.181 156.11 434.166 156.2 434.151 156.304C434.136 156.393 434.128 156.453 434.128 156.483C434.128 156.661 434.218 156.751 434.397 156.751C434.502 156.751 434.606 156.728 434.711 156.684C434.83 156.624 434.942 156.565 435.047 156.505C435.166 156.43 435.271 156.371 435.361 156.326C435.45 156.267 435.525 156.237 435.585 156.237C435.734 156.237 435.839 156.386 435.898 156.684C435.644 156.877 435.368 157.064 435.069 157.243C434.786 157.406 434.509 157.555 434.24 157.69C433.972 157.824 433.718 157.928 433.479 158.002C433.24 158.092 433.046 158.137 432.896 158.137C432.732 158.137 432.575 158.099 432.426 158.025C432.276 157.965 432.202 157.809 432.202 157.555C432.202 157.511 432.209 157.436 432.224 157.332C432.239 157.213 432.254 157.131 432.269 157.086L434.375 146.291C434.464 145.859 434.532 145.434 434.576 145.017C434.621 144.585 434.644 144.25 434.644 144.011Z" fill="#0F75C2"/>
<path d="M440.895 147.878C441.015 147.312 441.074 146.857 441.074 146.514C441.074 146.321 441.052 146.12 441.007 145.911C441.291 145.866 441.59 145.822 441.903 145.777C442.217 145.732 442.531 145.665 442.844 145.576C442.964 145.665 443.024 145.754 443.024 145.844C443.024 145.874 443.016 145.933 443.001 146.023C443.001 146.112 442.994 146.187 442.979 146.246L442.598 148.258H444.905C444.861 148.392 444.816 148.556 444.771 148.749C444.726 148.943 444.689 149.122 444.659 149.286C444.286 149.226 443.905 149.182 443.516 149.152C443.128 149.122 442.762 149.1 442.419 149.085L441.186 156.058C441.142 156.281 441.119 156.438 441.119 156.527C441.119 156.885 441.336 157.064 441.769 157.064C441.993 157.064 442.195 157.041 442.374 156.997C442.568 156.937 442.74 156.87 442.889 156.796C443.024 156.736 443.136 156.684 443.225 156.639C443.33 156.579 443.412 156.55 443.472 156.55C443.636 156.55 443.733 156.691 443.763 156.974C443.3 157.332 442.792 157.615 442.239 157.824C441.702 158.032 441.194 158.137 440.716 158.137C440.178 158.137 439.797 158.047 439.573 157.868C439.349 157.704 439.237 157.451 439.237 157.108C439.237 156.945 439.252 156.788 439.282 156.639L440.694 149.018H439.058C439.088 148.764 439.133 148.578 439.193 148.459C439.267 148.325 439.387 148.258 439.551 148.258H440.828L440.895 147.878Z" fill="#0F75C2"/>
<path d="M449.293 144.011C449.293 143.937 449.278 143.862 449.248 143.788C449.233 143.713 449.173 143.676 449.069 143.676C449.024 143.676 448.942 143.691 448.822 143.721C448.718 143.736 448.606 143.758 448.486 143.788C448.367 143.803 448.255 143.817 448.15 143.832C448.046 143.847 447.971 143.855 447.926 143.855C447.717 143.855 447.612 143.698 447.612 143.385C448.284 143.207 448.904 143.028 449.472 142.849C450.054 142.655 450.629 142.447 451.197 142.223C451.376 142.342 451.466 142.484 451.466 142.648C451.466 142.707 451.458 142.774 451.443 142.849C451.428 142.909 451.413 142.961 451.399 143.005L449.494 152.594H449.561C449.965 151.938 450.368 151.327 450.771 150.761C451.175 150.195 451.585 149.71 452.003 149.308C452.422 148.891 452.847 148.571 453.28 148.347C453.714 148.109 454.147 147.99 454.58 147.99C455.013 147.99 455.356 148.094 455.61 148.302C455.879 148.511 456.014 148.854 456.014 149.331C456.014 149.509 455.999 149.718 455.969 149.956C455.939 150.195 455.902 150.433 455.857 150.672L454.714 156.036C454.699 156.095 454.684 156.17 454.669 156.259C454.655 156.349 454.647 156.416 454.647 156.46C454.647 156.654 454.737 156.751 454.916 156.751C455.005 156.751 455.11 156.728 455.23 156.684C455.349 156.624 455.461 156.565 455.566 156.505C455.685 156.43 455.79 156.371 455.879 156.326C455.969 156.267 456.044 156.237 456.103 156.237C456.253 156.237 456.357 156.386 456.417 156.684C456.148 156.877 455.872 157.064 455.588 157.243C455.304 157.406 455.02 157.555 454.737 157.69C454.468 157.824 454.214 157.928 453.975 158.002C453.751 158.092 453.564 158.137 453.415 158.137C453.251 158.137 453.094 158.099 452.944 158.025C452.795 157.965 452.72 157.809 452.72 157.555C452.72 157.511 452.728 157.436 452.743 157.332C452.758 157.213 452.773 157.131 452.788 157.086L454.042 151.119C454.132 150.701 454.177 150.366 454.177 150.113C454.177 149.681 453.967 149.465 453.549 149.465C453.34 149.465 453.079 149.576 452.765 149.8C452.452 150.023 452.115 150.329 451.757 150.716C451.413 151.089 451.063 151.528 450.704 152.035C450.346 152.542 450.01 153.07 449.696 153.622C449.561 153.875 449.427 154.158 449.293 154.471C449.173 154.769 449.069 155.082 448.979 155.41C448.889 155.738 448.815 156.058 448.755 156.371C448.71 156.684 448.688 156.967 448.688 157.22C448.688 157.429 448.71 157.63 448.755 157.824C448.187 157.883 447.597 157.995 446.985 158.159C446.851 158.084 446.783 157.995 446.783 157.891C446.783 157.831 446.791 157.764 446.806 157.69C446.821 157.6 446.836 157.526 446.851 157.466L449.024 146.291C449.113 145.859 449.181 145.434 449.225 145.017C449.27 144.585 449.293 144.25 449.293 144.011Z" fill="#0F75C2"/>
<path d="M468.576 145.598C468.293 145.598 468.068 145.516 467.904 145.352C467.74 145.173 467.658 144.942 467.658 144.659C467.658 144.257 467.792 143.899 468.061 143.587C468.345 143.259 468.681 143.095 469.069 143.095C469.368 143.095 469.577 143.192 469.696 143.385C469.831 143.579 469.898 143.825 469.898 144.123C469.898 144.495 469.771 144.838 469.517 145.151C469.263 145.449 468.95 145.598 468.576 145.598ZM467.434 156.036C467.419 156.095 467.404 156.177 467.389 156.281C467.374 156.371 467.367 156.438 467.367 156.483C467.367 156.661 467.456 156.751 467.635 156.751C467.74 156.751 467.844 156.728 467.949 156.684C468.069 156.624 468.181 156.565 468.285 156.505C468.405 156.43 468.509 156.371 468.599 156.326C468.688 156.267 468.763 156.237 468.823 156.237C468.972 156.237 469.077 156.386 469.136 156.684C468.882 156.877 468.606 157.064 468.307 157.243C468.024 157.406 467.747 157.555 467.479 157.69C467.21 157.824 466.956 157.928 466.717 158.002C466.478 158.092 466.284 158.137 466.134 158.137C465.97 158.137 465.813 158.099 465.664 158.025C465.515 157.965 465.44 157.809 465.44 157.555C465.44 157.511 465.447 157.436 465.462 157.332C465.477 157.213 465.492 157.131 465.507 157.086C465.836 155.492 466.097 154.225 466.291 153.287C466.485 152.333 466.627 151.61 466.717 151.119C466.821 150.612 466.889 150.277 466.918 150.113C466.948 149.949 466.963 149.852 466.963 149.822C466.963 149.643 466.896 149.554 466.762 149.554C466.702 149.554 466.612 149.584 466.493 149.643C466.373 149.688 466.246 149.74 466.112 149.8C465.978 149.845 465.851 149.897 465.731 149.956C465.627 150.001 465.544 150.023 465.485 150.023C465.395 150.023 465.328 149.979 465.283 149.889C465.238 149.8 465.201 149.696 465.171 149.576C465.44 149.427 465.753 149.263 466.112 149.085C466.47 148.891 466.814 148.712 467.142 148.548C467.486 148.384 467.785 148.25 468.039 148.146C468.307 148.042 468.487 147.99 468.576 147.99C468.83 147.99 468.957 148.116 468.957 148.369C468.957 148.474 468.942 148.586 468.912 148.705L467.434 156.036Z" fill="#0F75C2"/>
<path d="M479.421 151.119C479.511 150.716 479.556 150.381 479.556 150.113C479.556 149.681 479.346 149.465 478.928 149.465C478.704 149.465 478.428 149.591 478.099 149.845C477.771 150.083 477.427 150.403 477.069 150.806C476.71 151.193 476.352 151.633 475.993 152.124C475.65 152.616 475.344 153.115 475.075 153.622C474.94 153.875 474.806 154.158 474.672 154.471C474.552 154.769 474.44 155.082 474.336 155.41C474.246 155.723 474.171 156.036 474.111 156.349C474.067 156.661 474.044 156.952 474.044 157.22C474.044 157.429 474.067 157.63 474.111 157.824C473.544 157.883 472.954 157.995 472.342 158.159C472.222 158.084 472.162 157.995 472.162 157.891C472.162 157.861 472.17 157.801 472.185 157.712C472.2 157.608 472.215 157.526 472.23 157.466C472.573 155.738 472.842 154.374 473.036 153.376C473.23 152.378 473.372 151.625 473.462 151.119C473.566 150.597 473.626 150.262 473.641 150.113C473.671 149.949 473.686 149.852 473.686 149.822C473.686 149.643 473.626 149.554 473.507 149.554C473.447 149.554 473.357 149.584 473.238 149.643C473.118 149.688 472.991 149.74 472.857 149.8C472.737 149.845 472.618 149.897 472.498 149.956C472.379 150.001 472.289 150.023 472.23 150.023C472.155 150.023 472.088 149.979 472.028 149.889C471.983 149.8 471.946 149.696 471.916 149.576C472.185 149.412 472.498 149.241 472.857 149.062C473.23 148.869 473.589 148.697 473.932 148.548C474.276 148.384 474.575 148.25 474.828 148.146C475.082 148.042 475.247 147.99 475.321 147.99C475.426 147.99 475.515 148.019 475.59 148.079C475.665 148.124 475.702 148.206 475.702 148.325C475.702 148.369 475.695 148.429 475.68 148.504C475.68 148.563 475.672 148.63 475.657 148.705L474.851 152.594H474.94C475.329 151.938 475.732 151.327 476.15 150.761C476.568 150.195 476.987 149.71 477.405 149.308C477.838 148.891 478.271 148.571 478.704 148.347C479.137 148.109 479.578 147.99 480.026 147.99C480.444 147.99 480.773 148.094 481.012 148.302C481.266 148.511 481.393 148.854 481.393 149.331C481.393 149.509 481.378 149.718 481.348 149.956C481.318 150.195 481.281 150.433 481.236 150.672L480.093 156.036C480.048 156.244 480.026 156.386 480.026 156.46C480.026 156.654 480.116 156.751 480.295 156.751C480.384 156.751 480.489 156.728 480.608 156.684C480.728 156.624 480.84 156.565 480.945 156.505C481.064 156.43 481.169 156.371 481.258 156.326C481.348 156.267 481.422 156.237 481.482 156.237C481.632 156.237 481.736 156.386 481.796 156.684C481.527 156.877 481.251 157.064 480.967 157.243C480.683 157.406 480.399 157.555 480.116 157.69C479.847 157.824 479.593 157.928 479.354 158.002C479.115 158.092 478.921 158.137 478.771 158.137C478.607 158.137 478.45 158.099 478.301 158.025C478.166 157.965 478.099 157.809 478.099 157.555C478.099 157.511 478.107 157.444 478.122 157.354C478.137 157.25 478.152 157.161 478.167 157.086L479.421 151.119Z" fill="#0F75C2"/>
<path d="M497.381 149.085C497.202 149.025 496.993 148.98 496.754 148.951C496.515 148.906 496.291 148.884 496.082 148.884C495.44 148.884 494.88 149.047 494.402 149.375C493.924 149.703 493.521 150.15 493.192 150.716C492.878 151.282 492.639 151.946 492.475 152.705C492.326 153.465 492.251 154.277 492.251 155.142C492.251 155.693 492.326 156.095 492.475 156.349C492.624 156.587 492.848 156.706 493.147 156.706C493.416 156.706 493.707 156.572 494.021 156.304C494.335 156.021 494.648 155.663 494.962 155.231C495.29 154.784 495.597 154.285 495.88 153.734C496.179 153.182 496.44 152.623 496.665 152.057C496.889 151.491 497.06 150.947 497.18 150.426C497.314 149.904 497.381 149.457 497.381 149.085ZM490.324 161.042C490.533 161.489 490.855 161.862 491.288 162.16C491.721 162.473 492.191 162.629 492.699 162.629C493.326 162.629 493.879 162.368 494.357 161.847C494.835 161.34 495.178 160.595 495.387 159.612L496.485 154.248H496.396C495.768 155.559 495.074 156.535 494.312 157.175C493.565 157.816 492.848 158.137 492.161 158.137C491.937 158.137 491.713 158.099 491.489 158.025C491.265 157.965 491.071 157.853 490.907 157.69C490.743 157.511 490.608 157.28 490.504 156.997C490.399 156.699 490.347 156.319 490.347 155.857C490.347 154.65 490.526 153.562 490.884 152.594C491.258 151.61 491.736 150.783 492.318 150.113C492.901 149.427 493.543 148.906 494.245 148.548C494.962 148.176 495.656 147.99 496.328 147.99C496.851 147.99 497.329 148.012 497.762 148.057C498.21 148.101 498.733 148.183 499.33 148.302L497.269 158.807C497.105 159.656 496.829 160.372 496.44 160.953C496.052 161.549 495.619 162.033 495.141 162.405C494.663 162.793 494.155 163.069 493.618 163.232C493.095 163.411 492.609 163.501 492.161 163.501C491.041 163.501 490.168 163.352 489.54 163.054C489.645 162.726 489.727 162.443 489.787 162.204C489.846 161.966 489.899 161.653 489.943 161.266L490.324 161.042Z" fill="#0F75C2"/>
<path d="M506.799 147.99C507.351 147.99 507.829 148.086 508.233 148.28C508.651 148.459 508.987 148.72 509.241 149.062C509.495 149.39 509.681 149.785 509.801 150.247C509.935 150.709 510.002 151.208 510.002 151.744C510.002 152.817 509.831 153.756 509.487 154.561C509.144 155.365 508.703 156.036 508.165 156.572C507.643 157.094 507.053 157.488 506.396 157.757C505.738 158.01 505.096 158.137 504.469 158.137C503.946 158.137 503.498 158.055 503.125 157.891C502.766 157.727 502.475 157.488 502.251 157.175C502.027 156.863 501.863 156.483 501.758 156.036C501.668 155.574 501.624 155.06 501.624 154.493C501.624 153.51 501.788 152.616 502.117 151.811C502.46 151.007 502.886 150.321 503.394 149.755C503.916 149.189 504.476 148.757 505.074 148.459C505.686 148.146 506.261 147.99 506.799 147.99ZM505.029 157.265C505.477 157.265 505.888 157.131 506.261 156.863C506.649 156.594 506.978 156.222 507.247 155.745C507.531 155.268 507.747 154.71 507.897 154.069C508.046 153.413 508.121 152.698 508.121 151.923C508.121 150.984 508.009 150.239 507.785 149.688C507.561 149.137 507.165 148.861 506.597 148.861C506.104 148.861 505.664 149.025 505.275 149.353C504.887 149.681 504.558 150.105 504.29 150.627C504.036 151.148 503.842 151.729 503.707 152.37C503.573 153.011 503.506 153.644 503.506 154.27C503.506 155.253 503.618 155.998 503.842 156.505C504.081 157.012 504.476 157.265 505.029 157.265Z" fill="#0F75C2"/>
<path d="M517.636 147.99C518.188 147.99 518.666 148.086 519.069 148.28C519.488 148.459 519.824 148.72 520.078 149.062C520.331 149.39 520.518 149.785 520.638 150.247C520.772 150.709 520.839 151.208 520.839 151.744C520.839 152.817 520.668 153.756 520.324 154.561C519.98 155.365 519.54 156.036 519.002 156.572C518.479 157.094 517.889 157.488 517.232 157.757C516.575 158.01 515.933 158.137 515.306 158.137C514.783 158.137 514.335 158.055 513.961 157.891C513.603 157.727 513.312 157.488 513.088 157.175C512.864 156.863 512.699 156.483 512.595 156.036C512.505 155.574 512.46 155.06 512.46 154.493C512.46 153.51 512.625 152.616 512.953 151.811C513.297 151.007 513.722 150.321 514.23 149.755C514.753 149.189 515.313 148.757 515.911 148.459C516.523 148.146 517.098 147.99 517.636 147.99ZM515.866 157.265C516.314 157.265 516.724 157.131 517.098 156.863C517.486 156.594 517.815 156.222 518.084 155.745C518.367 155.268 518.584 154.71 518.733 154.069C518.883 153.413 518.957 152.698 518.957 151.923C518.957 150.984 518.845 150.239 518.621 149.688C518.397 149.137 518.001 148.861 517.434 148.861C516.941 148.861 516.5 149.025 516.112 149.353C515.724 149.681 515.395 150.105 515.126 150.627C514.872 151.148 514.678 151.729 514.544 152.37C514.409 153.011 514.342 153.644 514.342 154.27C514.342 155.253 514.454 155.998 514.678 156.505C514.917 157.012 515.313 157.265 515.866 157.265Z" fill="#0F75C2"/>
<path d="M530.847 146.291C530.877 146.112 530.907 145.918 530.937 145.71C530.981 145.486 531.011 145.27 531.026 145.062C531.056 144.853 531.079 144.659 531.094 144.481C531.108 144.287 531.116 144.13 531.116 144.011C531.116 143.937 531.101 143.862 531.071 143.788C531.056 143.713 530.996 143.676 530.892 143.676C530.847 143.676 530.765 143.691 530.645 143.721C530.541 143.736 530.421 143.758 530.287 143.788C530.167 143.803 530.048 143.817 529.929 143.832C529.824 143.847 529.749 143.855 529.704 143.855C529.51 143.855 529.413 143.698 529.413 143.385C530.085 143.207 530.705 143.028 531.273 142.849C531.84 142.655 532.408 142.447 532.975 142.223C533.095 142.298 533.17 142.365 533.199 142.424C533.229 142.484 533.244 142.544 533.244 142.603C533.244 142.722 533.229 142.856 533.199 143.005L530.645 156.103C530.63 156.177 530.616 156.252 530.601 156.326C530.586 156.386 530.578 156.438 530.578 156.483C530.578 156.661 530.668 156.751 530.847 156.751C530.952 156.751 531.056 156.728 531.161 156.684C531.28 156.624 531.392 156.565 531.497 156.505C531.616 156.43 531.721 156.371 531.81 156.326C531.915 156.267 531.997 156.237 532.057 156.237C532.206 156.237 532.303 156.386 532.348 156.684C532.094 156.877 531.818 157.064 531.519 157.243C531.235 157.406 530.959 157.555 530.69 157.69C530.421 157.824 530.168 157.928 529.929 158.002C529.69 158.092 529.495 158.137 529.346 158.137C529.182 158.137 529.032 158.099 528.898 158.025C528.764 157.965 528.696 157.809 528.696 157.555C528.696 157.436 528.719 157.265 528.764 157.041L529.436 154.158H529.346C528.644 155.559 527.942 156.572 527.24 157.198C526.538 157.824 525.821 158.137 525.089 158.137C524.865 158.137 524.641 158.099 524.417 158.025C524.208 157.965 524.014 157.846 523.835 157.667C523.656 157.488 523.506 157.25 523.387 156.952C523.282 156.639 523.23 156.244 523.23 155.767C523.23 154.501 523.417 153.383 523.79 152.415C524.163 151.446 524.641 150.634 525.224 149.979C525.806 149.323 526.449 148.831 527.15 148.504C527.852 148.161 528.532 147.99 529.189 147.99C529.667 147.99 530.1 148.012 530.489 148.057L530.847 146.291ZM530.242 149.085C530.063 149.025 529.846 148.98 529.592 148.951C529.339 148.906 529.107 148.884 528.898 148.884C528.315 148.884 527.793 149.047 527.33 149.375C526.867 149.688 526.471 150.12 526.142 150.672C525.829 151.223 525.582 151.871 525.403 152.616C525.224 153.361 525.134 154.158 525.134 155.008C525.134 155.633 525.209 156.073 525.358 156.326C525.508 156.579 525.732 156.706 526.03 156.706C526.314 156.706 526.613 156.572 526.926 156.304C527.24 156.036 527.554 155.685 527.867 155.253C528.181 154.821 528.48 154.33 528.764 153.778C529.047 153.227 529.294 152.668 529.503 152.102C529.727 151.536 529.906 150.992 530.041 150.47C530.175 149.934 530.242 149.472 530.242 149.085Z" fill="#0F75C2"/>
<path d="M543.745 144.011C543.745 143.937 543.731 143.862 543.701 143.788C543.686 143.713 543.626 143.676 543.521 143.676C543.477 143.676 543.394 143.691 543.275 143.721C543.17 143.736 543.058 143.758 542.939 143.788C542.819 143.803 542.707 143.817 542.603 143.832C542.498 143.847 542.424 143.855 542.379 143.855C542.17 143.855 542.065 143.698 542.065 143.385C542.737 143.207 543.357 143.028 543.925 142.849C544.507 142.655 545.082 142.447 545.65 142.223C545.829 142.342 545.919 142.484 545.919 142.648C545.919 142.707 545.911 142.774 545.896 142.849C545.881 142.909 545.866 142.961 545.851 143.005L543.947 152.594H544.014C544.418 151.938 544.821 151.327 545.224 150.761C545.627 150.195 546.038 149.71 546.456 149.308C546.874 148.891 547.3 148.571 547.733 148.347C548.166 148.109 548.599 147.99 549.033 147.99C549.466 147.99 549.809 148.094 550.063 148.302C550.332 148.511 550.466 148.854 550.466 149.331C550.466 149.509 550.451 149.718 550.422 149.956C550.392 150.195 550.354 150.433 550.31 150.672L549.167 156.036C549.152 156.095 549.137 156.17 549.122 156.259C549.107 156.349 549.1 156.416 549.1 156.46C549.1 156.654 549.189 156.751 549.369 156.751C549.458 156.751 549.563 156.728 549.682 156.684C549.802 156.624 549.914 156.565 550.018 156.505C550.138 156.43 550.242 156.371 550.332 156.326C550.422 156.267 550.496 156.237 550.556 156.237C550.705 156.237 550.81 156.386 550.87 156.684C550.601 156.877 550.325 157.064 550.041 157.243C549.757 157.406 549.473 157.555 549.189 157.69C548.921 157.824 548.667 157.928 548.428 158.002C548.204 158.092 548.017 158.137 547.868 158.137C547.703 158.137 547.547 158.099 547.397 158.025C547.248 157.965 547.173 157.809 547.173 157.555C547.173 157.511 547.181 157.436 547.196 157.332C547.21 157.213 547.225 157.131 547.24 157.086L548.495 151.119C548.585 150.701 548.629 150.366 548.629 150.113C548.629 149.681 548.42 149.465 548.002 149.465C547.793 149.465 547.532 149.576 547.218 149.8C546.904 150.023 546.568 150.329 546.21 150.716C545.866 151.089 545.515 151.528 545.157 152.035C544.798 152.542 544.462 153.07 544.149 153.622C544.014 153.875 543.88 154.158 543.745 154.471C543.626 154.769 543.521 155.082 543.432 155.41C543.342 155.738 543.267 156.058 543.208 156.371C543.163 156.684 543.141 156.967 543.141 157.22C543.141 157.429 543.163 157.63 543.208 157.824C542.64 157.883 542.05 157.995 541.438 158.159C541.303 158.084 541.236 157.995 541.236 157.891C541.236 157.831 541.244 157.764 541.259 157.69C541.274 157.6 541.289 157.526 541.303 157.466L543.477 146.291C543.566 145.859 543.633 145.434 543.678 145.017C543.723 144.585 543.745 144.25 543.745 144.011Z" fill="#0F75C2"/>
<path d="M559.737 154.158H559.647C559.274 154.888 558.893 155.507 558.505 156.013C558.116 156.52 557.728 156.93 557.339 157.243C556.966 157.555 556.593 157.779 556.219 157.913C555.861 158.062 555.517 158.137 555.189 158.137C554.965 158.137 554.748 158.099 554.539 158.025C554.345 157.965 554.166 157.853 554.001 157.69C553.852 157.526 553.733 157.302 553.643 157.019C553.553 156.736 553.509 156.378 553.509 155.946C553.509 154.68 553.71 153.555 554.113 152.571C554.532 151.588 555.047 150.761 555.659 150.09C556.272 149.405 556.929 148.884 557.631 148.526C558.348 148.168 559.012 147.99 559.625 147.99C560.103 147.99 560.558 148.012 560.991 148.057C561.439 148.101 561.94 148.183 562.492 148.302L560.946 156.058C560.917 156.207 560.902 156.341 560.902 156.46C560.902 156.654 560.984 156.751 561.148 156.751C561.253 156.751 561.357 156.728 561.462 156.684C561.581 156.624 561.693 156.565 561.798 156.505C561.917 156.43 562.022 156.371 562.111 156.326C562.216 156.267 562.298 156.237 562.358 156.237C562.507 156.237 562.612 156.386 562.672 156.684C562.403 156.877 562.119 157.064 561.82 157.243C561.536 157.406 561.26 157.555 560.991 157.69C560.722 157.824 560.469 157.928 560.23 158.002C559.991 158.092 559.796 158.137 559.647 158.137C559.483 158.137 559.333 158.099 559.199 158.025C559.065 157.965 558.997 157.824 558.997 157.6C558.997 157.526 559.005 157.444 559.02 157.354C559.035 157.25 559.057 157.146 559.087 157.041L559.737 154.158ZM560.543 149.085C560.364 149.025 560.162 148.98 559.938 148.951C559.729 148.906 559.528 148.884 559.333 148.884C558.736 148.884 558.198 149.04 557.72 149.353C557.242 149.666 556.832 150.105 556.488 150.672C556.145 151.238 555.876 151.908 555.682 152.683C555.502 153.458 555.413 154.3 555.413 155.209C555.413 155.745 555.48 156.132 555.614 156.371C555.749 156.594 555.936 156.706 556.175 156.706C556.473 156.706 556.794 156.572 557.138 156.304C557.481 156.036 557.81 155.685 558.124 155.253C558.452 154.821 558.766 154.337 559.065 153.801C559.363 153.249 559.617 152.691 559.826 152.124C560.05 151.558 560.222 151.014 560.342 150.493C560.476 149.956 560.543 149.487 560.543 149.085Z" fill="#0F75C2"/>
<path d="M572.904 151.119C572.994 150.716 573.039 150.381 573.039 150.113C573.039 149.681 572.83 149.465 572.411 149.465C572.187 149.465 571.911 149.591 571.582 149.845C571.254 150.083 570.91 150.403 570.552 150.806C570.193 151.193 569.835 151.633 569.477 152.124C569.133 152.616 568.827 153.115 568.558 153.622C568.424 153.875 568.289 154.158 568.155 154.471C568.035 154.769 567.923 155.082 567.819 155.41C567.729 155.723 567.654 156.036 567.595 156.349C567.55 156.661 567.527 156.952 567.527 157.22C567.527 157.429 567.55 157.63 567.595 157.824C567.027 157.883 566.437 157.995 565.825 158.159C565.705 158.084 565.646 157.995 565.646 157.891C565.646 157.861 565.653 157.801 565.668 157.712C565.683 157.608 565.698 157.526 565.713 157.466C566.056 155.738 566.325 154.374 566.519 153.376C566.713 152.378 566.855 151.625 566.945 151.119C567.049 150.597 567.109 150.262 567.124 150.113C567.154 149.949 567.169 149.852 567.169 149.822C567.169 149.643 567.109 149.554 566.99 149.554C566.93 149.554 566.84 149.584 566.721 149.643C566.601 149.688 566.474 149.74 566.34 149.8C566.221 149.845 566.101 149.897 565.982 149.956C565.862 150.001 565.772 150.023 565.713 150.023C565.638 150.023 565.571 149.979 565.511 149.889C565.466 149.8 565.429 149.696 565.399 149.576C565.668 149.412 565.982 149.241 566.34 149.062C566.713 148.869 567.072 148.697 567.415 148.548C567.759 148.384 568.058 148.25 568.312 148.146C568.565 148.042 568.73 147.99 568.804 147.99C568.909 147.99 568.999 148.019 569.073 148.079C569.148 148.124 569.185 148.206 569.185 148.325C569.185 148.369 569.178 148.429 569.163 148.504C569.163 148.563 569.155 148.63 569.14 148.705L568.334 152.594H568.424C568.812 151.938 569.215 151.327 569.633 150.761C570.052 150.195 570.47 149.71 570.888 149.308C571.321 148.891 571.754 148.571 572.187 148.347C572.62 148.109 573.061 147.99 573.509 147.99C573.927 147.99 574.256 148.094 574.495 148.302C574.749 148.511 574.876 148.854 574.876 149.331C574.876 149.509 574.861 149.718 574.831 149.956C574.801 150.195 574.764 150.433 574.719 150.672L573.576 156.036C573.532 156.244 573.509 156.386 573.509 156.46C573.509 156.654 573.599 156.751 573.778 156.751C573.868 156.751 573.972 156.728 574.092 156.684C574.211 156.624 574.323 156.565 574.428 156.505C574.547 156.43 574.652 156.371 574.741 156.326C574.831 156.267 574.906 156.237 574.965 156.237C575.115 156.237 575.219 156.386 575.279 156.684C575.01 156.877 574.734 157.064 574.45 157.243C574.166 157.406 573.883 157.555 573.599 157.69C573.33 157.824 573.076 157.928 572.837 158.002C572.598 158.092 572.404 158.137 572.255 158.137C572.09 158.137 571.933 158.099 571.784 158.025C571.65 157.965 571.582 157.809 571.582 157.555C571.582 157.511 571.59 157.444 571.605 157.354C571.62 157.25 571.635 157.161 571.65 157.086L572.904 151.119Z" fill="#0F75C2"/>
<path d="M585.556 146.291C585.586 146.112 585.616 145.918 585.645 145.71C585.69 145.486 585.72 145.27 585.735 145.062C585.765 144.853 585.787 144.659 585.802 144.481C585.817 144.287 585.825 144.13 585.825 144.011C585.825 143.937 585.81 143.862 585.78 143.788C585.765 143.713 585.705 143.676 585.601 143.676C585.556 143.676 585.474 143.691 585.354 143.721C585.25 143.736 585.13 143.758 584.996 143.788C584.876 143.803 584.757 143.817 584.637 143.832C584.533 143.847 584.458 143.855 584.413 143.855C584.219 143.855 584.122 143.698 584.122 143.385C584.794 143.207 585.414 143.028 585.981 142.849C586.549 142.655 587.117 142.447 587.684 142.223C587.804 142.298 587.878 142.365 587.908 142.424C587.938 142.484 587.953 142.544 587.953 142.603C587.953 142.722 587.938 142.856 587.908 143.005L585.354 156.103C585.339 156.177 585.324 156.252 585.309 156.326C585.294 156.386 585.287 156.438 585.287 156.483C585.287 156.661 585.377 156.751 585.556 156.751C585.66 156.751 585.765 156.728 585.869 156.684C585.989 156.624 586.101 156.565 586.206 156.505C586.325 156.43 586.43 156.371 586.519 156.326C586.624 156.267 586.706 156.237 586.766 156.237C586.915 156.237 587.012 156.386 587.057 156.684C586.803 156.877 586.527 157.064 586.228 157.243C585.944 157.406 585.668 157.555 585.399 157.69C585.13 157.824 584.876 157.928 584.637 158.002C584.398 158.092 584.204 158.137 584.055 158.137C583.891 158.137 583.741 158.099 583.607 158.025C583.472 157.965 583.405 157.809 583.405 157.555C583.405 157.436 583.427 157.265 583.472 157.041L584.144 154.158H584.055C583.353 155.559 582.651 156.572 581.949 157.198C581.247 157.824 580.53 158.137 579.798 158.137C579.574 158.137 579.35 158.099 579.126 158.025C578.917 157.965 578.723 157.846 578.544 157.667C578.364 157.488 578.215 157.25 578.096 156.952C577.991 156.639 577.939 156.244 577.939 155.767C577.939 154.501 578.125 153.383 578.499 152.415C578.872 151.446 579.35 150.634 579.933 149.979C580.515 149.323 581.157 148.831 581.859 148.504C582.561 148.161 583.241 147.99 583.898 147.99C584.376 147.99 584.809 148.012 585.197 148.057L585.556 146.291ZM584.951 149.085C584.772 149.025 584.555 148.98 584.301 148.951C584.047 148.906 583.816 148.884 583.607 148.884C583.024 148.884 582.502 149.047 582.038 149.375C581.575 149.688 581.18 150.12 580.851 150.672C580.537 151.223 580.291 151.871 580.112 152.616C579.933 153.361 579.843 154.158 579.843 155.008C579.843 155.633 579.918 156.073 580.067 156.326C580.216 156.579 580.44 156.706 580.739 156.706C581.023 156.706 581.322 156.572 581.635 156.304C581.949 156.036 582.263 155.685 582.576 155.253C582.89 154.821 583.189 154.33 583.472 153.778C583.756 153.227 584.003 152.668 584.212 152.102C584.436 151.536 584.615 150.992 584.749 150.47C584.884 149.934 584.951 149.472 584.951 149.085Z" fill="#0F75C2"/>
<path d="M595.879 150.448C595.714 150.433 595.61 150.396 595.565 150.336C595.52 150.262 595.49 150.18 595.475 150.09C595.401 149.643 595.229 149.301 594.96 149.062C594.691 148.809 594.325 148.682 593.862 148.682C593.384 148.682 592.974 148.802 592.63 149.04C592.287 149.263 592.115 149.591 592.115 150.023C592.115 150.321 592.242 150.627 592.496 150.94C592.765 151.238 593.078 151.543 593.437 151.856C593.706 152.095 593.989 152.34 594.288 152.594C594.587 152.847 594.856 153.108 595.095 153.376C595.334 153.629 595.528 153.897 595.677 154.181C595.841 154.464 595.923 154.754 595.923 155.052C595.923 155.484 595.826 155.887 595.632 156.259C595.438 156.632 595.169 156.959 594.826 157.243C594.497 157.511 594.101 157.727 593.638 157.891C593.19 158.055 592.712 158.137 592.204 158.137C591.682 158.137 591.174 158.092 590.681 158.002C590.188 157.913 589.725 157.771 589.292 157.578C589.412 157.131 589.501 156.721 589.561 156.349C589.636 155.961 589.688 155.529 589.718 155.052H589.942C590.3 155.052 590.479 155.179 590.479 155.432C590.45 156.058 590.591 156.542 590.905 156.885C591.234 157.228 591.682 157.399 592.249 157.399C592.832 157.399 593.31 157.25 593.683 156.952C594.057 156.639 594.243 156.237 594.243 155.745C594.243 155.522 594.183 155.306 594.064 155.097C593.959 154.888 593.818 154.695 593.638 154.516C593.459 154.322 593.257 154.136 593.033 153.957C592.809 153.763 592.578 153.57 592.339 153.376C591.891 153.003 591.48 152.616 591.107 152.214C590.748 151.797 590.569 151.32 590.569 150.783C590.569 150.381 590.659 150.008 590.838 149.666C591.032 149.323 591.286 149.033 591.6 148.794C591.928 148.541 592.302 148.347 592.72 148.213C593.153 148.064 593.608 147.99 594.086 147.99C594.953 147.99 595.767 148.191 596.528 148.593C596.454 148.816 596.386 149.1 596.327 149.442C596.282 149.785 596.245 150.128 596.215 150.47L595.879 150.448Z" fill="#0F75C2"/>
</svg>
